<?xml version="1.0" encoding="UTF-8"?>
<svg xmlns="http://www.w3.org/2000/svg" xmlns:xlink="http://www.w3.org/1999/xlink" width="95pt" height="95pt" viewBox="0 0 95 95" version="1.1">
<g id="surface1">
<path style=" stroke:none;fill-rule:nonzero;fill:rgb(0%,0%,0%);fill-opacity:1;" d="M 68.261719 61.1875 C 67.40625 62.167969 66.449219 63.058594 65.3125 63.71875 L 65.3125 67.976562 C 77.65625 69.707031 86.09375 73.179688 86.09375 77.1875 C 86.09375 82.925781 68.816406 87.578125 47.5 87.578125 C 26.183594 87.578125 8.90625 82.925781 8.90625 77.1875 C 8.90625 73.179688 17.34375 69.710938 29.6875 67.976562 L 29.6875 63.71875 C 28.550781 63.058594 27.59375 62.167969 26.738281 61.1875 C 10.921875 64.078125 0 70.144531 0 77.1875 C 0 87.023438 21.265625 95 47.5 95 C 73.734375 95 95 87.023438 95 77.1875 C 95 70.144531 84.078125 64.078125 68.261719 61.1875 Z M 47.5 23.75 C 54.058594 23.75 59.375 18.433594 59.375 11.875 C 59.375 5.316406 54.058594 0 47.5 0 C 40.941406 0 35.625 5.316406 35.625 11.875 C 35.625 18.433594 40.941406 23.75 47.5 23.75 Z M 35.625 59.375 L 35.625 77.1875 C 35.625 80.464844 38.285156 83.125 41.5625 83.125 L 53.4375 83.125 C 56.714844 83.125 59.375 80.464844 59.375 77.1875 L 59.375 59.375 C 62.652344 59.375 65.3125 56.714844 65.3125 53.4375 L 65.3125 35.625 C 65.3125 30.707031 61.324219 26.71875 56.40625 26.71875 L 54.21875 26.71875 C 52.164062 27.652344 49.902344 28.203125 47.5 28.203125 C 45.097656 28.203125 42.835938 27.652344 40.78125 26.71875 L 38.59375 26.71875 C 33.675781 26.71875 29.6875 30.707031 29.6875 35.625 L 29.6875 53.4375 C 29.6875 56.714844 32.347656 59.375 35.625 59.375 Z M 35.625 59.375 "/>
</g>
</svg>
